<svg width="17" height="17" viewBox="0 0 17 17" fill="none" xmlns="http://www.w3.org/2000/svg">
<g id="Icon" clip-path="url(#clip0_16_915)">
<path id="Vector" d="M7.8335 3.16666H3.16683C2.81321 3.16666 2.47407 3.30713 2.22402 3.55718C1.97397 3.80723 1.8335 4.14637 1.8335 4.49999V13.8333C1.8335 14.1869 1.97397 14.5261 2.22402 14.7761C2.47407 15.0262 2.81321 15.1667 3.16683 15.1667H12.5002C12.8538 15.1667 13.1929 15.0262 13.443 14.7761C13.693 14.5261 13.8335 14.1869 13.8335 13.8333V9.16666" stroke="#6B6B6B" stroke-width="2" stroke-linecap="round" stroke-linejoin="round"/>
<path id="Vector_2" d="M12.8335 2.16669C13.0987 1.90147 13.4584 1.75247 13.8335 1.75247C14.2086 1.75247 14.5683 1.90147 14.8335 2.16669C15.0987 2.4319 15.2477 2.79161 15.2477 3.16669C15.2477 3.54176 15.0987 3.90147 14.8335 4.16669L8.50016 10.5L5.8335 11.1667L6.50016 8.50002L12.8335 2.16669Z" stroke="#6B6B6B" stroke-width="2" stroke-linecap="round" stroke-linejoin="round"/>
</g>
<defs>
<clipPath id="clip0_16_915">
<rect width="16" height="16" fill="white" transform="translate(0.5 0.5)"/>
</clipPath>
</defs>
</svg>
