<svg width="24" height="24" viewBox="0 0 24 24" fill="none" xmlns="http://www.w3.org/2000/svg">
<path d="M19.6923 6.84521H4.30769C3.03319 6.84521 2 7.8784 2 9.15291V18.3837C2 19.6582 3.03319 20.6914 4.30769 20.6914H19.6923C20.9668 20.6914 22 19.6582 22 18.3837V9.15291C22 7.8784 20.9668 6.84521 19.6923 6.84521Z" stroke="#393939" stroke-width="1.7" stroke-linejoin="round"/>
<path d="M19.4692 6.84538V5.40307C19.4691 5.04933 19.3909 4.69996 19.2403 4.37991C19.0896 4.05986 18.8701 3.77701 18.5975 3.55155C18.3249 3.32608 18.006 3.16355 17.6633 3.07556C17.3207 2.98756 16.9629 2.97627 16.6154 3.0425L3.95385 5.20355C3.404 5.30834 2.90796 5.60172 2.55127 6.03309C2.19459 6.46447 1.99962 7.00679 2 7.56653V9.9223" stroke="#393939" stroke-width="1.7" stroke-linejoin="round"/>
<path d="M17.3849 14.4563C17.2487 14.4563 17.1156 14.4159 17.0024 14.3402C16.8892 14.2646 16.801 14.1571 16.7488 14.0313C16.6967 13.9055 16.6831 13.767 16.7097 13.6335C16.7362 13.4999 16.8018 13.3773 16.8981 13.281C16.9944 13.1847 17.117 13.1191 17.2506 13.0926C17.3841 13.066 17.5226 13.0796 17.6484 13.1317C17.7742 13.1839 17.8817 13.2721 17.9573 13.3853C18.033 13.4985 18.0734 13.6316 18.0734 13.7678C18.0734 13.9504 18.0008 14.1255 17.8717 14.2546C17.7426 14.3837 17.5675 14.4563 17.3849 14.4563Z" fill="#393939" stroke="#393939" stroke-width="1.7"/>
</svg>
